HIERARCHY
ROOT root
{
	OFFSET	0	13.1	24.9
	CHANNELS 6  Xposition Yposition Zposition Xrotation Yrotation Zrotation
	JOINT spine_1
	{
		OFFSET	0	9.99999	0
		CHANNELS 3  Xrotation Yrotation Zrotation
		JOINT spine_2
		{
			OFFSET	0	112	-10
			CHANNELS 3  Xrotation Yrotation Zrotation
			JOINT spine_3
			{
				OFFSET	0	206.5	19.3
				CHANNELS 3  Xrotation Yrotation Zrotation
				JOINT spine_4
				{
					OFFSET	0	110.4	14.6
					CHANNELS 3  Xrotation Yrotation Zrotation
					JOINT neck_1
					{
						OFFSET	0	71.8	-50.3
						CHANNELS 3  Xrotation Yrotation Zrotation
						JOINT neck_2
						{
							OFFSET	0	86.2	-25.8
							CHANNELS 3  Xrotation Yrotation Zrotation
							JOINT head_ee
							{
								OFFSET	0	179.8	-8.7
								CHANNELS 3  Xrotation Yrotation Zrotation
								End Site
								{
									OFFSET	1	0	0
								}
							}
						}
					}
					JOINT left_clavicle
					{
						OFFSET	-43.2	22.4	-70.8
						CHANNELS 3  Xrotation Yrotation Zrotation
						JOINT left_shoulder
						{
							OFFSET	-93.9	-5.79999	48.7
							CHANNELS 3  Xrotation Yrotation Zrotation
							JOINT left_elbow
							{
								OFFSET	-291.4	-30.8	15.2
								CHANNELS 3  Xrotation Yrotation Zrotation
								JOINT left_lowarm_twist
								{
									OFFSET	-110.7	-3.89999	13.6
									CHANNELS 3  Xrotation Yrotation Zrotation
									JOINT left_hand
									{
										OFFSET	-110.7	-3.89999	13.6
										CHANNELS 3  Xrotation Yrotation Zrotation
										JOINT left_ee
										{
											OFFSET	-80.8	-5.10001	12.1
											CHANNELS 3  Xrotation Yrotation Zrotation
											End Site
											{
												OFFSET	1	0	0
											}
										}
									}
								}
							}
						}
					}
					JOINT right_clavicle
					{
						OFFSET	43.2	22.4	-70.8
						CHANNELS 3  Xrotation Yrotation Zrotation
						JOINT right_shoulder
						{
							OFFSET	93.9	-5.79999	48.7
							CHANNELS 3  Xrotation Yrotation Zrotation
							JOINT right_elbow
							{
								OFFSET	291.4	-30.8	15.2
								CHANNELS 3  Xrotation Yrotation Zrotation
								JOINT right_lowarm_twist
								{
									OFFSET	110.7	-3.89999	13.6
									CHANNELS 3  Xrotation Yrotation Zrotation
									JOINT right_hand
									{
										OFFSET	110.7	-3.89999	13.6
										CHANNELS 3  Xrotation Yrotation Zrotation
										JOINT right_ee
										{
											OFFSET	80.8	-5.10001	12.1
											CHANNELS 3  Xrotation Yrotation Zrotation
											End Site
											{
												OFFSET	1	0	0
											}
										}
									}
								}
							}
						}
					}
				}
			}
		}
	}
	JOINT left_hip
	{
		OFFSET	-82.8	-127.5	0.300001
		CHANNELS 3  Xrotation Yrotation Zrotation
		JOINT left_knee
		{
			OFFSET	-28.2	-396.7	2.2
			CHANNELS 3  Xrotation Yrotation Zrotation
			JOINT left_ankle
			{
				OFFSET	-11.7	-411.3	35.4
				CHANNELS 3  Xrotation Yrotation Zrotation
				JOINT left_toes
				{
					OFFSET	0	-60	-88.6
					CHANNELS 3  Xrotation Yrotation Zrotation
					JOINT left_foot_ee
					{
						OFFSET	-22.5	-16.5	-42.2
						CHANNELS 3  Xrotation Yrotation Zrotation
						End Site
						{
							OFFSET	1	0	0
						}
					}
				}
			}
		}
	}
	JOINT right_hip
	{
		OFFSET	82.8	-127.5	0.300001
		CHANNELS 3  Xrotation Yrotation Zrotation
		JOINT right_knee
		{
			OFFSET	28.2	-396.7	2.2
			CHANNELS 3  Xrotation Yrotation Zrotation
			JOINT right_ankle
			{
				OFFSET	11.7	-411.3	35.4
				CHANNELS 3  Xrotation Yrotation Zrotation
				JOINT right_toes
				{
					OFFSET	0	-60	-88.6
					CHANNELS 3  Xrotation Yrotation Zrotation
					JOINT right_foot_ee
					{
						OFFSET	22.5	-16.5	-42.2
						CHANNELS 3  Xrotation Yrotation Zrotation
						End Site
						{
							OFFSET	1	0	0
						}
					}
				}
			}
		}
	}
}
MOTION
Frames: 5
Frame Time: 0.02
391.555 721.904 -1204.45 -177.626481044 -23.9816750921 177.398723001 0.0842864 0.300091 2.26578 0.0871292 0.155344 2.28028 0.0946983 -0.323774 2.26252 0.0875565 0.0375159 2.28525 -2.37218 11.1918 1.13636 -2.1926 19.3913 2.6974 -0.0 0.0 -0.0 -0.625398 19.065 1.29334 3.16059 -9.62119 72.3616 1.52091 -36.9924 0.508805 -10.6087 -0.49222 1.26195 -0.617248 10.118 0.236831 -0.0 0.0 -0.0 10.1618 16.8663 -19.9633 -7.07817 23.8274 -63.7234 0.868623 23.2815 -0.17895 1.68442 -0.056296 0.207763 1.05807 -1.80436 -7.81367 0.0 0.0 0.0 12.4877 17.7546 0.184558 -22.1698 0.263553 3.37074 37.9957 24.2007 -4.94705 -14.9518 0.0 0.0 -0.0 0.0 -0.0 4.47005 22.8852 8.86721 -0.872433 -0.0349386 -0.129326 14.7687 -21.0997 2.12118 -22.3523 0.0 0.0 0.0 0.0 0.0 
397.063292399 718.579 -1200.64075127 -177.367647987 -22.811870497 177.612889019 0.0851952 0.476732 2.26356 0.0879846 0.331768 2.28929 0.10281 -0.152647 2.30816 0.0954389 0.213699 2.30331 0.0868736 10.3143 0.563178 0.319971 17.928 1.65775 -0.0 0.0 -0.0 -1.28652 18.2986 0.192083 4.238 -9.70585 73.2144 1.40921 -34.9163 0.443212 -8.3206 -0.366373 0.997715 -0.47936 9.99168 1.0658 -0.0 0.0 -0.0 10.1944 17.3856 -20.0074 -6.37893 23.8904 -64.3439 0.796546 21.5334 -0.151472 5.86558 -0.169425 0.729763 0.638623 -5.88104 -6.64885 0.0 0.0 0.0 11.767 10.8641 2.09764 -21.7821 0.270208 3.31161 41.1849 28.1833 -5.39764 -16.5525 0.0 0.0 -0.0 0.0 -0.0 5.28974 20.7068 8.19156 0.254061 0.0105451 0.0375616 15.7153 -28.1632 2.33629 -20.5978 0.0 0.0 0.0 0.0 0.0 
407.977559514 718.606 -1203.2099375 -176.261528045 -23.1448079571 178.134204833 0.118015 0.619741 2.3449 0.120951 0.469316 2.37956 0.142226 -0.0351507 2.42511 0.134188 0.34818 2.40026 4.06369 10.4685 1.99999 4.34124 16.3873 2.84099 -0.0 0.0 -0.0 -1.11383 17.118 0.284558 4.59268 -10.8464 73.9664 1.40182 -34.7749 0.438985 -6.09056 -0.253992 0.735617 0.914028 9.6351 9.91206 -0.0 0.0 -0.0 10.388 19.7461 -20.2916 -8.27431 25.7239 -63.6152 0.951494 25.2361 -0.213003 5.89498 -0.170085 0.73346 0.477326 -6.97558 -6.02453 0.0 0.0 0.0 11.5015 3.41763 3.97226 -22.3009 0.261214 3.39072 41.2767 27.0498 -5.36212 -18.4404 0.0 0.0 -0.0 0.0 -0.0 4.35345 24.2415 9.48458 0.890467 0.0376909 0.131447 15.0218 -21.7194 2.16126 -20.6689 0.0 0.0 0.0 0.0 0.0 
407.945872693 718.606 -1202.84453796 -176.295847166 -21.8714970839 178.044560993 0.118015 0.619741 2.3449 0.120951 0.469316 2.37956 0.142226 -0.0351507 2.42511 0.134188 0.34818 2.40026 4.06369 10.4685 1.99999 4.34124 16.3873 2.84099 -0.0 0.0 -0.0 -1.11383 17.118 0.284558 4.59268 -10.8464 73.9664 1.40182 -34.7749 0.438985 -6.09056 -0.253992 0.735617 0.914028 9.6351 9.91206 -0.0 0.0 -0.0 10.388 19.7461 -20.2916 -8.27431 25.7239 -63.6152 0.951494 25.2361 -0.213003 5.89498 -0.170085 0.73346 0.477326 -6.97558 -6.02453 0.0 0.0 0.0 11.5015 3.41763 3.97226 -22.3009 0.261214 3.39072 41.2767 27.0498 -5.36212 -18.4404 0.0 0.0 -0.0 0.0 -0.0 4.35345 24.2415 9.48458 0.890467 0.0376909 0.131447 15.0218 -21.7194 2.16126 -20.6689 0.0 0.0 0.0 0.0 0.0 
407.938219858 718.606 -1202.7682381 -176.302712795 -21.6052785056 178.026023785 0.118015 0.619741 2.3449 0.120951 0.469316 2.37956 0.142226 -0.0351507 2.42511 0.134188 0.34818 2.40026 4.06369 10.4685 1.99999 4.34124 16.3873 2.84099 -0.0 0.0 -0.0 -1.11383 17.118 0.284558 4.59268 -10.8464 73.9664 1.40182 -34.7749 0.438985 -6.09056 -0.253992 0.735617 0.914028 9.6351 9.91206 -0.0 0.0 -0.0 10.388 19.7461 -20.2916 -8.27431 25.7239 -63.6152 0.951494 25.2361 -0.213003 5.89498 -0.170085 0.73346 0.477326 -6.97558 -6.02453 0.0 0.0 0.0 11.5015 3.41763 3.97226 -22.3009 0.261214 3.39072 41.2767 27.0498 -5.36212 -18.4404 0.0 0.0 -0.0 0.0 -0.0 4.35345 24.2415 9.48458 0.890467 0.0376909 0.131447 15.0218 -21.7194 2.16126 -20.6689 0.0 0.0 0.0 0.0 0.0 
